<?xml version="1.0" encoding="utf-8"?>
<!-- Generator: Adobe Illustrator 24.1.1, SVG Export Plug-In . SVG Version: 6.00 Build 0)  -->
<svg version="1.1" id="Layer_1" xmlns="http://www.w3.org/2000/svg" xmlns:xlink="http://www.w3.org/1999/xlink" x="0px" y="0px"
	 viewBox="0 0 792 426.6" style="enable-background:new 0 0 792 426.6;" xml:space="preserve">
<style type="text/css">
	.st0{fill:#FFFFFF;}
</style>
<g>
	<path class="st0" d="M207.1,197.8c0.7-7.2,0.8-14.7-0.3-22.2c-2.9-20.3-12.9-35.7-31.6-44.9c-0.3-0.2-0.7-0.3-1-0.5
		c-0.8-0.4-1.5-0.5-2.1,0.2c-0.6,0.7-0.3,1.3,0,2c2.7,5,4.8,10.2,6.3,15.7c3.8,14.3,2.9,28.2-2.7,41.9c-0.9,2.1-1.6,2.3-3.3,0.8
		c-3.2-2.8-6.6-5.4-10.7-6.8c-0.9-0.3-1.9-0.8-2.6,0.3c-0.7,1,0,1.7,0.5,2.5c3.2,5,3.8,10.5,3.8,16.2c0,6.1-1.1,12.1-2.5,18
		c-1.9,8.1-2.6,16.2,0.2,24.2c1.6,4.6,4.2,8.4,8,11.5c0.7,0.6,1.5,1.4,2.6,0.7c1-0.7,0.6-1.6,0.4-2.5c-1.5-6.6-1.6-13.1,1.1-19.4
		c1.5-3.5,3.8-6.3,6.7-8.7c1.6-1.3,2.6-0.8,2.8,1.1c0.4,4.1,1.2,8.2,3.1,11.9c3.1,6.2,8,9.8,14.8,10.8c0.9,0.1,1.9,0,2.2,1.2
		c0.3,1.2-0.7,1.6-1.4,2.1c-22.1,16.1-44.3,32.2-66.4,48.2c-14,10.2-28,20.3-42,30.5c-0.5,0.4-1,0.7-1.5,1c-0.5,0.3-1,0.3-1.5,0
		c-0.5-0.4-0.7-0.9-0.5-1.4c0.2-0.8,0.5-1.5,0.7-2.3c10.7-34.3,21.4-68.5,32.1-102.8c0.5-1.7,0.2-2.6-1.2-3.7
		c-29-21.6-58-43.2-87-64.8c-0.8-0.6-2.3-1-1.9-2.4c0.4-1.5,1.9-1,3-1.1c21.9-0.3,43.8-0.5,65.7-0.8c14.3-0.2,28.6-0.4,43-0.5
		c1.7,0,2.5-0.7,3-2.2c11.6-34.4,23.3-68.8,34.9-103.2c0.1-0.2,0.2-0.5,0.2-0.7c0.2-0.7,0.6-1.4,1.5-1.4c0.9,0,1.2,0.7,1.4,1.4
		c1.3,3.9,2.6,7.8,4,11.7c10.4,30.7,20.8,61.3,31.1,92c0.6,1.7,1.4,2.4,3.2,2.4c22.9,0.2,45.9,0.5,68.8,0.8
		c13.3,0.2,26.7,0.4,40,0.6c0.9,0,1.9-0.2,2.3,0.9c0.4,1.2-0.6,1.7-1.4,2.3c-20.7,15.1-41.4,30.1-62.2,45.1
		c-9.1,6.6-18.3,13.3-27.4,19.9c-0.4,0.3-0.9,0.6-1.3,1c-0.7,0.5-1.4,1.1-2.3,0.6c-0.8-0.5-0.7-1.4-0.6-2.1c0.5-4.2,0-8.4-0.8-12.5
		c-0.1-0.5-0.2-1-0.4-1.4c-0.5-1.3-1.6-1.5-2.6-0.5c-0.2,0.2-0.3,0.4-0.4,0.6c-4.5,5.9-11.2,8.1-18.1,5.8c-6.2-2.1-9.8-7.6-9.9-15
		C207,199.2,207.1,198.6,207.1,197.8z"/>
	<path class="st0" d="M354.7,256.4c0-8.5,0-17,0-25.5c0-1.4,0.4-1.9,1.8-1.9c6.7,0.1,13.4,0.1,20,0c1.5,0,1.8,0.5,1.8,1.9
		c0,14.9,0,29.8,0,44.8c0,2.1,0.2,4.1,0.6,6.1c1.7,8.2,7.8,12.8,16.2,12.2c8.9-0.7,13.9-5.8,14.5-14.9c0.1-1.1,0.1-2.2,0.1-3.3
		c0-15,0-30,0-44.9c0-1.4,0.4-1.9,1.8-1.8c6.7,0.1,13.4,0.1,20,0c1.3,0,1.8,0.3,1.8,1.7c-0.1,15.6,0,31.2-0.1,46.8
		c0,5.4-0.8,10.6-2.7,15.7c-3.9,10.6-11.4,17.1-22.2,20c-9.1,2.5-18.4,2.5-27.6,0.4c-14.4-3.3-23.4-13.4-25.4-28.4
		c-0.4-3.2-0.7-6.4-0.7-9.6C354.7,269.2,354.7,262.8,354.7,256.4z"/>
	<path class="st0" d="M513,313.3c-0.2-0.6,0.2-1.1,0.4-1.6c11.5-27.2,22.9-54.4,34.4-81.6c0.5-1.3,1.2-1.7,2.6-1.7
		c6.3,0.1,12.6,0.1,18.9,0c1.4,0,2,0.5,2.5,1.7c11.4,27.1,22.9,54.3,34.4,81.4c0.8,1.9,0.8,1.9-1.3,1.9c-7.1,0-14.2,0-21.3,0
		c-1.2,0-1.8-0.3-2.3-1.5c-1.5-4.1-3.3-8.2-4.9-12.4c-0.4-1-0.9-1.4-2-1.4c-10,0-20,0-30,0c-1,0-1.5,0.4-1.9,1.3
		c-1.6,4.2-3.3,8.3-4.9,12.5c-0.3,0.8-0.7,1.4-1.8,1.4c-7.4-0.1-14.8,0-22.2,0C513.5,313.5,513.2,313.4,513,313.3z M559.8,256.7
		c-0.2,0-0.3,0-0.5,0c-3,7.5-6,15-8.9,22.4c-0.6,1.4,0.7,1,1.2,1c5.3,0,10.6,0,15.8,0c1.3,0,1.6-0.3,1-1.5c-2-4.9-3.9-9.9-5.9-14.9
		C561.7,261.4,560.8,259,559.8,256.7z"/>
	<path class="st0" d="M474.5,227.6c14,0.2,24.9,2.8,34.4,9.7c1.9,1.4,1.9,1.4,0.6,3.4c-3,4.3-6.1,8.5-9,12.8c-0.9,1.4-1.5,1.7-3,0.6
		c-6.2-4.2-13.1-6.8-20.7-7.2c-2.2-0.1-4.4,0-6.4,0.9c-1.8,0.8-3.1,2.1-3.3,4.2c-0.2,2.2,0.7,3.9,2.7,5c3.9,2.2,8.2,2.9,12.5,3.9
		c6,1.4,11.9,3.1,17.6,5.7c19.1,8.6,15.5,32.9,3.8,41.2c-5.7,4-12,6.2-18.8,6.7c-16.1,1.3-30.9-2.2-43.8-12.3
		c-1.3-1-1.4-1.7-0.3-2.9c3.6-4.2,7.2-8.4,10.6-12.7c0.9-1.1,1.4-1.1,2.4-0.3c7.9,5.9,16.6,9.2,26.5,9.2c2.1,0,4.2-0.3,6.2-1.2
		c1.9-0.9,3.1-2.3,3.2-4.5c0.1-2.2-0.9-3.7-2.8-4.7c-3.6-2-7.6-2.9-11.5-3.8c-6.6-1.6-13.1-3.1-19.2-6.2c-5.9-3-10.4-7.3-12.1-14
		c-3.2-13.2,3.4-25.7,16.2-30.7C465.7,228.3,471.2,227.6,474.5,227.6z"/>
	<path class="st0" d="M221.1,296.1c-0.8,0-1.3,0.6-1.9,1c-4.7,3.2-3.2,3.3-7.7-0.1c-3.5-2.7-3.5-2.7,0.2-5.3
		c15.3-11,30.5-22,45.8-32.9c2.4-1.7,2.9-1.5,3.8,1.2c0.4,1.3,0.8,2.7,1.3,4c0.4,1.1,0.1,1.9-0.8,2.5c-0.1,0-0.1,0.1-0.1,0.1
		c-4.4,3.3-4.4,3.3-2.7,8.7c5.7,18.5,11.5,36.9,17.3,55.4c0.1,0.2,0.2,0.5,0.2,0.7c0.2,0.8,0.4,1.6-0.5,2.1c-0.8,0.5-1.4,0.1-2-0.4
		c-3.9-2.8-7.8-5.5-11.7-8.3c-13.1-9.3-26.1-18.5-39.2-27.8C222.3,296.7,221.8,296.2,221.1,296.1z M255.8,300.5
		c0-0.2-0.1-0.3-0.1-0.5c-2.3-7.1-4.6-14.3-7-21.4c-0.5-1.5-1.4-1.7-2.7-0.8c-1.6,1.1-3.3,2.3-4.9,3.5c-1.7,1.2-1.8,1.7-0.5,3.4
		c4,5.3,8,10.5,12.1,15.7c0.3,0.4,0.6,0.8,0.9,1.1c0.4,0.4,0.9,0.6,1.5,0.3C255.6,301.5,255.9,301.1,255.8,300.5z"/>
	<path class="st0" d="M251.5,254.2c0,1.1-0.8,1.5-1.5,2c-8.8,6.3-17.5,12.6-26.3,18.9c-4.5,3.3-9.1,6.5-13.6,9.8
		c-1.2,0.9-2.1,1-3.4,0.1c-4.8-3.3-9.6-6.4-14.4-9.6c-1.9-1.3-2-2-0.1-3.4c17.1-12.4,34.2-24.8,51.3-37.1c1.5-1.1,2.4-0.9,2.9,0.8
		c1.7,5.9,3.3,11.9,5,17.9C251.4,253.8,251.4,254,251.5,254.2z"/>
	<path class="st0" d="M422,204.7c-0.3,0.3-0.5,0.6-0.8,0.9c-6.4,9-18.6,7.1-23.8-1.4c-3.4-5.6-3.8-11.7-3.3-17.9
		c0.3-3.6,1.2-7,3-10.2c5.1-8.9,17.5-10.7,24.1-2c0.2,0.3,0.5,0.5,0.7,0.8c0.7-0.5,0.4-1.2,0.4-1.7c0-5.8,0.1-11.5,0-17.3
		c0-1.6,0.5-2,2-1.9c1.6,0.1,3.3,0.1,4.9,0c1.6-0.1,1.9,0.5,1.9,1.9c-0.1,16.3,0,32.6,0,48.9c0,1.5,0,3,0,4.5c0,1-0.4,1.3-1.3,1.2
		c-2.1,0-4.1,0-6.2,0c-0.9,0-1.3-0.3-1.3-1.3c0.1-1.6,0-3.1,0-4.7C422.2,204.8,422.1,204.8,422,204.7z M402.8,189.9
		c0,4.3,0.7,7.2,2.4,9.7c3.5,5.3,10,5.7,14,0.8c4.3-5.1,4.3-15.6,0.1-20.8c-4.1-5-10.9-4.5-14.3,1
		C403.3,183.5,402.8,186.6,402.8,189.9z"/>
	<path class="st0" d="M354.2,183.3c0-8.5,0-17,0-25.5c0-1.4,0.3-2,1.9-2c10.3,0.1,20.6,0.1,30.9,0c1.3,0,1.9,0.3,1.8,1.7
		c-0.1,1.6-0.1,3.3,0,4.9c0.1,1.3-0.4,1.6-1.7,1.6c-7.3,0-14.7,0-22-0.1c-1.6,0-2.1,0.5-2,2.1c0.1,3.8,0.1,7.5,0,11.3
		c0,1.4,0.4,1.8,1.8,1.8c6.4-0.1,12.9,0,19.3-0.1c1.3,0,1.9,0.3,1.7,1.7c-0.1,1.5-0.1,3,0,4.5c0.1,1.6-0.5,1.9-2,1.9
		c-6.2-0.1-12.5,0-18.7-0.1c-1.7,0-2.1,0.6-2.1,2.2c0.1,3.7,0.2,7.4,0,11.1c-0.1,2,0.6,2.3,2.4,2.3c7.2-0.1,14.3,0,21.5-0.1
		c1.9,0,2.4,0.6,2.3,2.4c-0.1,1.5-0.1,3,0,4.5c0,0.9-0.3,1.3-1.3,1.3c-10.8,0-21.6,0-32.4,0c-1.3,0-1.3-0.7-1.3-1.6
		C354.2,200.6,354.2,191.9,354.2,183.3z"/>
	<path class="st0" d="M599.9,190.4c0-5.5,1.2-10.3,4.3-14.5c8.2-11,25-9.6,31.3,2.6c3.5,6.9,3.7,14.1,0.9,21.2
		c-3.3,8.4-10.8,12.7-19.8,11.8c-7.8-0.8-14.3-7-16.1-15.4C600.1,194.1,599.9,192.1,599.9,190.4z M629.4,190.4
		c0.1-3.9-0.7-7.4-3-10.4c-4.1-5.3-11.4-5-15.1,0.5c-3.5,5.1-3.4,14.2,0.2,19.3c4.2,5.8,12,5.5,15.7-0.7
		C628.8,196.4,629.4,193.4,629.4,190.4z"/>
	<path class="st0" d="M538.8,206.2c-2.3,3-5.3,4.8-9,5.3c-9.7,1.1-16.1-5.4-14.8-15.1c0.9-6.5,5.3-10.5,12.2-11
		c3.5-0.3,7-0.1,10.4,1.1c1.4,0.5,1.6,0.1,1.6-1.2c0-5.2-2.9-8.3-8.1-8.6c-3.2-0.2-6.3,0.4-9.2,1.8c-1.6,0.8-2.1,0.3-2.5-1.2
		c-0.4-1.4-0.9-2.8-1.5-4.1c-0.3-0.7-0.1-1.1,0.6-1.4c6.4-2.9,13.1-3.9,19.8-1.7c5.8,1.8,8.5,6.3,9.1,12.2c0.2,2.2,0.2,4.5,0.2,6.7
		c0,6.7,0,13.5,0,20.2c0,1.4-0.4,1.9-1.8,1.8c-1.8-0.1-3.5-0.1-5.3,0c-1.1,0-1.6-0.3-1.5-1.4c0.1-1,0-2,0-3
		C539.1,206.3,538.9,206.2,538.8,206.2z M539.3,195.4c-0.4-0.9,0.8-2.4-0.8-3c-3.4-1.3-6.9-1.8-10.5-0.7c-3.3,1-4.9,3.9-4.5,7.6
		c0.4,3.2,2.7,5.4,6,5.7C534.2,205.4,539.8,202.4,539.3,195.4z"/>
	<path class="st0" d="M653.6,174.8c0.9-0.2,1-0.8,1.4-1.2c3.6-4.6,8.8-6.2,14.3-4.5c5,1.5,7.3,5.3,8.3,10.1c0.2,1.1,0.3,2.3,0.3,3.4
		c0,8.8,0,17.6,0,26.4c0,1.3-0.3,1.9-1.7,1.8c-1.8-0.1-3.6-0.1-5.5,0c-1.3,0.1-1.6-0.5-1.6-1.7c0-7.4,0-14.8,0-22.2
		c0-1.7,0-3.4-0.5-5.1c-0.9-3.3-3-5.1-6.3-5.4c-3.4-0.3-6.2,1.2-7.6,4.2c-0.9,1.8-1.1,3.8-1.1,5.8c0,7.3,0,14.7,0,22
		c0,2.3,0,2.3-2.4,2.3c-1.6,0-3.3,0-4.9,0c-0.9,0-1.4-0.2-1.4-1.3c0-13,0-26,0-38.9c0-0.9,0.3-1.3,1.3-1.3c2.1,0,4.1,0.1,6.2,0
		c1.1,0,1.3,0.5,1.3,1.4C653.6,172,653.6,173.4,653.6,174.8z"/>
	<path class="st0" d="M463.5,205.4c-0.8,0-0.9,0.6-1.2,1c-3.7,4.7-8.8,6.3-14.4,4.7c-4.7-1.4-7.9-5.6-8.4-11.2
		c-0.2-2.8-0.2-5.7-0.2-8.5c0-6.7,0-13.5,0-20.2c0-1.4,0.4-1.8,1.8-1.7c1.8,0.1,3.6,0.1,5.5,0c1.3-0.1,1.6,0.4,1.6,1.6
		c-0.1,7.8,0,15.5,0,23.3c0,1.1,0.1,2.2,0.3,3.3c0.7,3.8,3.1,6,6.6,6.2c3.8,0.2,6.7-1.8,7.9-5.4c0.5-1.6,0.6-3.3,0.6-5
		c0-7.3,0-14.7,0-22c0-1.5,0.4-2,1.9-1.9c1.7,0.1,3.4,0.1,5.1,0c1.4-0.1,1.9,0.4,1.9,1.8c-0.1,7.5,0,14.9,0,22.4
		c0,5.2,0,10.4,0,15.6c0,1.2-0.3,1.7-1.6,1.7c-1.9-0.1-3.8-0.1-5.6,0c-1.3,0.1-1.7-0.5-1.6-1.7C463.5,207.9,463.5,206.6,463.5,205.4
		z"/>
	<path class="st0" d="M479.1,190.4c-0.1-5.3,1-10.1,4-14.3c6.3-8.8,18.9-10.3,27-3.2c0.9,0.8,1.2,1.4,0.3,2.5
		c-1.2,1.3-2.2,2.9-3.3,4.3c-0.5,0.6-0.9,0.8-1.4,0.1c0,0-0.1-0.1-0.1-0.1c-5.2-5.5-14.5-4.6-17,5.4c-1,3.8-0.9,7.7,0.4,11.5
		c2.7,7.6,10.4,9.6,16.4,4.2c1.2-1,1.7-1.1,2.6,0.2c0.7,1,1.4,2,2.3,2.8c1.2,1.1,1,1.9-0.1,3c-7.9,7.9-25.6,6.9-30.1-9.3
		C479.3,195.2,479,192.7,479.1,190.4z"/>
	<path class="st0" d="M557.2,191c0-4.8,0-8.7,0-12.6c0-1.2-0.3-1.7-1.6-1.7c-2.9,0-2.9,0-2.9-3c0-0.2,0-0.5,0-0.7
		c0-3.4,0-3.5,3.3-3.7c1-0.1,1.2-0.5,1.2-1.4c0-2.8,0-5.6,0-8.4c0-1.2,0.3-1.6,1.6-1.6c1.9,0.1,3.8,0.1,5.6,0
		c1.3-0.1,1.6,0.5,1.6,1.7c-0.1,2.7,0,5.3,0,8c0,1.3,0.5,1.7,1.7,1.6c2.1-0.1,4.1,0,6.2,0c1,0,1.6,0.2,1.5,1.4
		c-0.1,1.6-0.1,3.2,0,4.7c0.1,1.2-0.5,1.4-1.5,1.4c-2-0.1-4,0.1-6,0c-1.4-0.1-1.9,0.3-1.9,1.8c0.1,6.4,0,12.9,0,19.3
		c0,4.9,2.3,6.7,7.1,5.4c2.2-0.6,2.2-0.6,2.2,1.7c0,0.6,0,1.2,0,1.8c0,3.3,0,3.3-3.2,4.1c-2.6,0.7-5.3,0.7-7.9,0.1
		c-3.8-0.9-6.2-3.5-6.7-7.5C556.9,199.1,557.4,194.6,557.2,191z"/>
	<path class="st0" d="M356.1,343.6c0-3.4,0.5-6.4,1.8-9.1c2.7-5.5,7.2-8.2,13.3-8.1c6.1,0.1,10.6,3.1,12.9,8.7
		c2.3,5.4,2.3,10.9,0.1,16.3c-2.6,6.3-8.4,9.5-15.4,8.8c-6.3-0.7-11.2-5.6-12.4-12.5C356.3,346.2,356.1,344.7,356.1,343.6z
		 M363,343.1c0,2.8,0.6,5.5,1.8,7.3c3.1,5,9.9,4.9,12.6-0.4c2.3-4.4,2.2-9,0-13.5c-1.3-2.6-3.5-4.1-6.4-4.1c-3,0-5.2,1.5-6.6,4.1
		C363.4,338.6,363,340.8,363,343.1z"/>
	<path class="st0" d="M715.8,337.2c0-3.2,0.1-6.4,0-9.5c0-1.3,0.2-1.9,1.8-1.9c4.7,0,4.7,0,4.7,4.7c0,9,0,18.1,0,27.1
		c0,1.4-0.3,2.2-1.9,1.9c-0.4-0.1-0.7,0-1.1,0c-3.2,0-3.2,0-3.8-2.9c-0.4-0.1-0.5,0.2-0.7,0.4c-3.8,4.1-9.9,3.7-13.1-0.9
		c-3.2-4.6-3.2-13.8,0-18.4c3.1-4.4,9.1-5,12.9-1.2C714.9,336.9,715.1,337.2,715.8,337.2z M705.9,347.1c0,2,0.4,3.6,1.2,4.9
		c1.9,3,5.5,3.1,7.5,0.1c1.8-2.7,1.7-7.6-0.1-10.2c-2-2.8-5.5-2.8-7.4,0.2C706.2,343.6,705.9,345.3,705.9,347.1z"/>
	<path class="st0" d="M397.5,337.4c0.4,0.1,0.5-0.2,0.7-0.4c4.1-4.4,10.7-3.7,13.6,1.6c2.9,5.5,2.8,11.2,0.1,16.8
		c-1.7,3.5-5.3,5.1-9,4.5c-1.7-0.3-2.5-0.7-5.6-3.3c0,2.3,0,4.3,0,6.3c0,3.8,0,3.8-3.8,3.8c-2.9,0-2.6,0.3-2.6-2.6
		c0-9.2,0-18.4,0-27.6c0-1.5,0.5-2.1,1.9-1.9c0.3,0,0.6,0,0.9,0C396.9,334.5,396.9,334.5,397.5,337.4z M397.2,346.9
		c0,1.9,0.2,3.7,1.4,5.3c1.9,2.7,5.2,2.7,7.2,0.1c1.9-2.6,1.9-8.1-0.1-10.7c-1.9-2.5-5.2-2.5-7.1,0.1
		C397.5,343.3,397.2,345,397.2,346.9z"/>
	<path class="st0" d="M424.9,337.7c1.7-2,3.4-3.3,5.8-3.6c4.1-0.3,7.5,1.6,9.1,5.5c1.8,4.4,1.8,8.9,0.5,13.4
		c-2,6.9-10.1,9.5-15.6,3.4c0,2.7,0,5,0,7.3c0,3.3,0.3,2.8-2.8,2.9c-3.7,0-3.7,0-3.7-3.7c0-8.8,0-17.6,0-26.4c0-1.6,0.4-2.3,2-2
		c0.4,0.1,0.8,0,1.3,0C424.5,334.5,424.5,334.5,424.9,337.7z M424.6,346.9c0,2.2,0.4,3.7,1.2,5c1.9,3.1,5.7,3.2,7.5,0
		c1.8-3.2,1.8-6.6,0-9.9c-1.8-3.2-5.7-3.1-7.6,0.1C424.9,343.6,424.6,345.2,424.6,346.9z"/>
	<path class="st0" d="M623.5,343.3c0-4.9,0-9.8,0-14.7c0-1.4,0.4-1.7,1.8-1.7c5.9,0.1,11.8,0.1,17.6,0c1.3,0,1.7,0.4,1.7,1.6
		c0,4.5,0.1,4.5-4.4,4.5c-2.7,0-5.5,0.1-8.2,0c-1.5-0.1-1.9,0.5-1.8,1.9c0.1,1.3,0.1,2.7,0,4c-0.1,1.3,0.3,1.7,1.6,1.7
		c3.1-0.1,6.2,0,9.3,0c1.2,0,1.7,0.3,1.7,1.6c0.1,4.5,0.1,4.5-4.4,4.5c-2.2,0-4.5,0-6.7,0c-1.1,0-1.5,0.4-1.5,1.5
		c0.1,3.3,0,6.7,0,10c0,1.2-0.3,1.5-1.5,1.6c-5.2,0.1-5.2,0.1-5.2-5C623.5,350.8,623.5,347.1,623.5,343.3z"/>
	<path class="st0" d="M468.2,346.5c0,6.8-3.1,11.6-8.2,13.1c-7.8,2.3-14.9-2.9-15.4-11.3c-0.1-2.2,0.1-4.4,0.8-6.5
		c1.9-5.4,6.9-8.4,12.8-7.6c5.3,0.7,9.3,5.1,9.9,10.8C468.2,345.7,468.2,346.4,468.2,346.5z M461.8,347.3c0-1.8-0.3-3.6-1.3-5.2
		c-2-3.1-6-3.2-8-0.3c-2,2.8-1.9,7.9,0.2,10.6c2.2,2.9,6.2,2.7,8-0.5C461.5,350.6,461.8,349,461.8,347.3z"/>
	<path class="st0" d="M592.7,190.1c0,6.3,0,12.6,0,18.9c0,1.3-0.3,1.8-1.7,1.7c-1.8-0.1-3.5-0.1-5.3,0c-1.5,0.1-1.8-0.4-1.8-1.8
		c0.1-9.5,0-19,0-28.6c0-3.2,0-6.4,0-9.6c0-1.1,0.3-1.5,1.5-1.5c1.9,0.1,3.9,0.1,5.8,0c1.2-0.1,1.5,0.4,1.5,1.6
		C592.7,177.3,592.7,183.7,592.7,190.1z"/>
	<path class="st0" d="M681.1,337.6c1.8-2.1,3.7-3.5,6.4-3.5c4,0.1,6.9,2.3,7.1,6.3c0.3,6,0.1,12.1,0.2,18.2c0,0.7-0.2,1-1,1
		c-0.2,0-0.4,0-0.5,0c-5,0.1-5,0.1-5-4.8c0-3.5,0-6.9,0-10.4c0-1.2-0.2-2.3-0.9-3.3c-1.6-2.1-5.1-1.5-6.1,1c-0.4,1-0.4,2-0.4,3
		c0,4.2,0,8.5,0,12.7c0,1.3-0.4,1.6-1.6,1.6c-4.9,0-4.9,0.1-4.9-4.7c0-6.2,0-12.5,0-18.7c0-1.2,0.3-1.8,1.6-1.7c0.5,0.1,1.1,0,1.6,0
		C680.6,334.5,680.6,334.5,681.1,337.6z"/>
	<path class="st0" d="M539.3,337.6c1.8-1.9,3.5-3.4,6-3.5c4.4-0.1,7.5,2.3,7.7,6.7c0.2,5.9,0.1,11.8,0.1,17.6c0,0.9-0.5,1.1-1.2,1.1
		c-5.2,0.3-5.2,0.3-5.2-4.9c0-3.2,0-6.3,0-9.5c0-0.9-0.1-1.8-0.3-2.7c-0.4-1.7-1.6-2.6-3.3-2.6c-1.7,0-2.9,0.8-3.5,2.4
		c-0.4,1-0.4,2-0.4,3.1c0,4.2,0,8.4,0,12.6c0,1.2-0.3,1.7-1.6,1.7c-4.9,0-4.9,0.1-4.9-4.7c0-6.2,0-12.5,0-18.7
		c0-1.3,0.3-1.8,1.6-1.6c0.6,0.1,1.2,0,1.8,0C539,334.5,539,334.5,539.3,337.6z"/>
	<path class="st0" d="M520.4,356.4c-1.6,1.9-3.1,3.3-5.4,3.5c-4.5,0.5-7.9-2.2-8.1-6.9c-0.2-5.8-0.1-11.6-0.1-17.5
		c0-0.8,0.3-1.1,1.1-1.1c1.2,0,2.3,0.1,3.5,0c1.5-0.1,2,0.3,2,1.9c-0.1,4.1,0,8.2,0,12.4c0,1,0,1.9,0.3,2.9c0.5,1.6,1.5,2.5,3.2,2.5
		c1.7,0.1,2.9-0.8,3.5-2.4c0.4-1,0.4-2,0.4-3.1c0-4.2,0-8.5,0-12.7c0-1.1,0.3-1.5,1.4-1.5c5.1-0.1,5.1-0.2,5.1,4.9
		c0,6.2,0,12.4,0,18.5c0,1.3-0.3,1.8-1.6,1.6c-0.5-0.1-1.1,0-1.6,0C520.9,359.6,520.9,359.6,520.4,356.4z"/>
	<path class="st0" d="M662.2,356.5c-1.6,2-3.3,3.3-5.8,3.4c-4.1,0.1-7.1-2-7.5-6.1c-0.6-6.1-0.1-12.2-0.2-18.3c0-0.7,0.3-1,1-1
		c0.1,0,0.2,0,0.4,0c5.1-0.3,5.1-0.3,5.1,4.8c0,3.2,0,6.3,0,9.5c0,1,0,2.1,0.4,3.1c0.5,1.5,1.6,2.3,3.1,2.3c1.5,0.1,2.7-0.6,3.3-2
		c0.5-1.1,0.5-2.2,0.5-3.4c0-4.2,0-8.4,0-12.5c0-1.2,0.3-1.7,1.6-1.7c4.9,0,4.9-0.1,4.9,4.7c0,6.2,0,12.4,0,18.5
		c0,1.4-0.4,2-1.8,1.8c-0.4-0.1-0.7,0-1.1,0C662.9,359.6,662.9,359.6,662.2,356.5z"/>
	<path class="st0" d="M597.3,350.6c0.7-0.7,0.7-1.4,0.9-2c1.2-4.2,2.4-8.4,3.4-12.6c0.3-1.2,0.8-1.6,2-1.5c1.3,0.1,2.5,0.1,3.8,0
		c1.1-0.1,1.2,0.4,0.9,1.3c-2.8,8.4-5.4,16.9-8.3,25.2c-1.9,5.6-6.1,7.2-11.2,4.9c-1-0.5-1.3-0.9-0.8-1.9c0.2-0.3,0.3-0.7,0.4-1
		c0.5-1.5,0.8-2.7,3-1.9c2,0.7,3.1-0.7,2.4-2.7c-2.5-7.3-4.9-14.6-7.4-21.9c-0.7-2-0.7-2,1.3-2c4.8,0,4.8,0,6.2,4.6
		C595.1,342.9,596.2,346.7,597.3,350.6z"/>
	<path class="st0" d="M735.3,334.1c2.4-0.1,4.7,0.6,6.8,1.7c1.1,0.5,1.6,1.1,0.7,2.3c-0.7,0.9-0.9,2.3-1.8,2.9c-1,0.6-1.9-0.8-3-1.1
		c-1.2-0.3-2.3-0.8-3.6-0.5c-0.8,0.2-1.5,0.6-1.6,1.5c-0.1,0.8,0.3,1.4,0.9,1.8c0.8,0.5,1.7,0.9,2.6,1.4c1.5,0.8,3.1,1.4,4.5,2.4
		c2.4,1.7,3.6,3.9,3.1,6.9c-0.5,3.1-2.2,5.2-5.3,6.1c-4.4,1.2-8.4,0.2-12.1-2.3c-0.3-0.2-0.9-0.5-0.6-1c0.7-1.3,1.5-2.6,2.4-3.9
		c0.4-0.6,0.9,0,1.2,0.3c1.7,1,3.4,2,5.4,2.1c1.3,0.1,2.5-0.1,3-1.5c0.4-1.5-0.8-2-1.8-2.6c-1.4-0.7-2.8-1.2-4.1-1.9
		c-4.3-2.1-5.9-4.9-5-8.8C727.8,336.3,730.9,334.1,735.3,334.1z"/>
	<path class="st0" d="M572,347.8c0-2.1,0-4.2,0-6.4c0-0.9-0.1-1.6-1.2-1.5c-1.1,0.1-1.4-0.4-1.3-1.4c0.1-0.8,0.1-1.6,0-2.4
		c-0.1-1.1,0.1-1.9,1.5-1.7c0.9,0.1,1.1-0.5,1.1-1.3c0-1.3,0-2.5,0-3.8c0-1,0.3-1.4,1.3-1.4c1.3,0.1,2.5,0.1,3.8,0
		c1,0,1.5,0.2,1.4,1.3c0,0.3,0,0.6,0,0.9c0.1,1.3-0.5,2.9,0.3,3.9c0.8,1,2.4,0.3,3.6,0.4c0.9,0,1.2,0.3,1.1,1.2c0,0.1,0,0.2,0,0.4
		c0.1,3.7,0.1,3.8-3.7,3.9c-1.2,0-1.4,0.5-1.4,1.5c0,3.3,0,6.5,0,9.8c0,2.5,1,3.4,3.4,2.7c1.4-0.4,1.6,0,1.6,1.3
		c0,3.9-0.7,4.6-4.7,4.7c-4.7,0.1-6.8-1.9-6.8-6.7C572,351.4,572,349.6,572,347.8z"/>
	<path class="st0" d="M494.1,328.1c3.3,0,3.3,0,3.3,3.2c0,0.2,0,0.4,0,0.5c0,3.1-0.2,2.8,2.7,2.7c1.8-0.1,2.7,0.4,2.3,2.3
		c0,0.2,0,0.4,0,0.5c0,3.1,0.3,2.7-2.7,2.6c-1.8-0.1-2.5,0.3-2.4,2.3c0.2,3,0,5.9,0.1,8.9c0,2.8,0.9,3.5,3.6,2.8
		c1.3-0.3,1.5,0.1,1.4,1.1c0,0.2,0,0.5,0,0.7c0,3.2-0.5,3.8-3.7,4.1c-5.2,0.5-7.7-1.6-7.7-6.8c0-3.8,0-7.6,0-11.4
		c0-1.1-0.1-1.8-1.5-1.7c-0.5,0.1-1,0-1.1-0.7c0-1.4-0.1-2.8,0-4.2c0-0.7,0.7-0.6,1.1-0.6c1.2,0.1,1.5-0.5,1.4-1.5
		c0-0.6,0-1.2,0-1.8C491,328.1,491,328.1,494.1,328.1z"/>
	<path class="st0" d="M479.3,338.1c0.6-0.2,0.7-0.8,1-1.2c1-1.4,2.4-2.4,4.1-2.7c1.1-0.2,1.6,0.1,1.5,1.3c-0.1,0.7,0,1.3,0,2
		c0,1,0.2,2.1-0.1,3.1c-0.4,1.2-1.8,0.6-2.7,1c-2.2,1-3.4,2.7-3.8,5c-0.6,3.7-0.3,7.4-0.2,11.1c0,1.6-0.4,2-2,2
		c-4.5-0.1-4.5,0-4.5-4.6c0-6.2,0-12.5,0-18.7c0-1.5,0.5-2,1.9-1.8c0.1,0,0.1,0,0.2,0c1.3,0,2.8-0.3,4,0.2
		C479.9,335.3,478.6,337,479.3,338.1z"/>
	<path class="st0" d="M558.6,346.9c0-3.6,0-7.1,0-10.7c0-1.2,0.2-1.7,1.6-1.7c4.9,0,4.9-0.1,4.9,4.9c0,6.1,0,12.2,0,18.3
		c0,1.3-0.2,1.9-1.8,1.9c-4.7,0-4.7,0-4.7-4.7C558.6,352.3,558.6,349.6,558.6,346.9z"/>
	<path class="st0" d="M588.5,154.5c4.5,0,4.5,0,4.5,4.4c0,4.2,0,4.3-4.3,4.2c-1.6,0-3.7,0.7-4.7-0.4c-0.9-1-0.3-3-0.3-4.6
		c0-3.7,0-3.7,3.7-3.7C587.7,154.5,588.1,154.5,588.5,154.5z"/>
	<path class="st0" d="M562,325.9c3.3,0,3.3,0,3.3,3.3c0,2.6,0,2.6-2.7,2.6c-4.2,0-4.1,0-4.2-4.2c0-1.3,0.3-1.9,1.7-1.7
		C560.8,325.9,561.4,325.9,562,325.9z"/>
</g>
</svg>
